<svg xmlns="http://www.w3.org/2000/svg" viewBox="0 0 512 512">
  <defs><linearGradient id="g" x1="0" y1="0" x2="0" y2="1">
    <stop offset="0%" stop-color="#58a6ff"/>
    <stop offset="100%" stop-color="#1f6feb"/>
  </linearGradient></defs>
  <path fill="url(#g)" d="M256 48c-88.4 0-160 71.6-160 160v120c0 8 4 16 12 20s16 0 20-8l24-40c0 0 8 12 24 20s40 12 80 12 64-4 80-12 24-20 24-20l24 40c4 8 12 12 20 8s12-12 12-20V208c0-88.4-71.6-160-160-160zm-56 176a24 24 0 1 1 0-48 24 24 0 0 1 0 48zm112 0a24 24 0 1 1 0-48 24 24 0 0 1 0 48z"/>
</svg>
